<svg width="13" height="13" xmlns="http://www.w3.org/2000/svg">
  <path
    d="M2 2h1v1H2zM10 2h1v1h-1zM6 1h1v2H6zM4 3h5v1H4zM3 4h1v2H3zM5 4h5v1H5zM4 5h6v1H4zM1 6h11v1H1zM3 7h7v2H3zM4 9h5v1H4zM6 10h1v2H6zM2 10h1v1H2zM10 10h1v1h-1z" />
  <g fill="red">
    <path
      d="M0 0h1v1H0zM12 0h1v1h-1zM1 1h1v1H1zM2 2h1v1H2zM3 3h1v1H3zM4 4h1v1H4zM5 5h1v1H5zM6 6h1v1H6zM7 7h1v1H7zM8 8h1v1H8zM9 9h1v1H9zM10 10h1v1h-1zM11 11h1v1h-1zM12 12h1v1h-1zM11 1h1v1h-1zM10 2h1v1h-1zM9 3h1v1H9zM8 4h1v1H8zM7 5h1v1H7zM5 7h1v1H5zM4 8h1v1H4zM0 12h1v1H0zM3 9h1v1H3zM2 10h1v1H2zM1 11h1v1H1z" />
  </g>
</svg>