<?xml version="1.0" encoding="utf-8"?>
<svg viewBox="0 0 13 13" xmlns="http://www.w3.org/2000/svg" xmlns:xlink="http://www.w3.org/1999/xlink">
  <style>
    :root>svg {
      display: none
    }

    :root>svg:target {
      display: block
    }
  </style>
  <svg viewBox="0 0 13 13" id="cover" xmlns="http://www.w3.org/2000/svg">
    <path fill="#fff" d="M0 0h13v13H0z" />
    <path d="M1 1h12v12H1z" />
    <path fill="gray" d="M1 1h11v11H1zM0 12h1v1H0zM12 0h1v1h-1z" />
  </svg>
  <svg viewBox="0 0 13 13" id="flag" xmlns="http://www.w3.org/2000/svg">
    <path fill="#fff" d="M0 0h13v13H0z" />
    <path d="M1 1h12v12H1z" />
    <path fill="gray" d="M1 1h11v11H1zM0 12h1v1H0zM12 0h1v1h-1z" />
    <path fill="red" d="M4 2h1v5H4zm1 1h2v3H5zm2 1h3v1H7z" />
    <path d="M4 7h1v3H4zm-2 3h5v1H2z" />
  </svg>
  <svg viewBox="0 0 13 13" id="mine" xmlns="http://www.w3.org/2000/svg">
    <path d="M2 2h1v1H2z" />
    <path fill="#fff" d="M4 4h1v1H4z" />
    <path
      d="M10 2h1v1h-1zM6 1h1v2H6zM4 3h5v1H4zM3 4h1v2H3zm2 0h5v1H5zM4 5h6v1H4zM1 6h11v1H1zm2 1h7v2H3zm1 2h5v1H4zm2 1h1v2H6zm-4 0h1v1H2zm8 0h1v1h-1z" />
  </svg>
  <svg viewBox="0 0 13 13" id="n1" xmlns="http://www.w3.org/2000/svg">
    <path fill="navy" d="M7 2h1v8H7zM6 3h1v1H6zM5 4h1v1H5zm0 6h5v1H5z" />
  </svg>
  <svg viewBox="0 0 13 13" id="n2" xmlns="http://www.w3.org/2000/svg">
    <path fill="#00f"
      d="M5 2h4v1H5zM4 3h1v1H4zm5 0h1v2H9zM3 4h1v1H3zm5 1h1v1H8zM6 6h2v1H6zM5 7h1v1H5zM4 8h1v1H4zM3 9h1v1H3zm0 1h7v1H3z" />
  </svg>
  <svg viewBox="0 0 13 13" id="n3" xmlns="http://www.w3.org/2000/svg">
    <path fill="green" d="M5 2h4v1H5zm4 1h1v3H9zM4 3h1v2H4zm2 3h3v1H6zM4 8h1v2H4zm5-1h1v3H9zm-4 3h4v1H5z" />
  </svg>
  <svg viewBox="0 0 13 13" id="n4" xmlns="http://www.w3.org/2000/svg">
    <path fill="maroon" d="M6 2h1v9H6zM5 3h1v1H5zM4 4h1v1H4zM3 5h1v1H3z" />
    <path fill="maroon" d="M2 6h8v1H2z" />
  </svg>
  <svg viewBox="0 0 13 13" id="n5" xmlns="http://www.w3.org/2000/svg">
    <path fill="red"
      d="M3 2h7v1H3zm0 1h1v3H3zm0 3h2v1H3zm2-1h3v1H5zm3 1h1v1H8zm1 1h1v2H9zM8 9h1v1H8zm-4 1h4v1H4zM3 9h1v1H3z" />
  </svg>
  <svg viewBox="0 0 13 13" id="n6" xmlns="http://www.w3.org/2000/svg">
    <path fill="#f0f"
      d="M5 2h3v1H5zM4 3h1v1H4zm4 0h1v1H8zM3 4h1v5H3zm6 0h1v1H9zM5 5h3v1H5zM4 6h1v1H4zm4 0h1v1H8zm1 1h1v2H9zM4 9h1v1H4zm4 0h1v1H8zm-3 1h3v1H5z" />
  </svg>
  <svg viewBox="0 0 13 13" id="n7" xmlns="http://www.w3.org/2000/svg">
    <path fill="#0ff"
      d="M3 2h8v1H3zm7 1h1v1h-1zM9 4h1v1H9zM8 5h1v1H8zM7 6h1v1H7zM6 7h1v1H6zM5 8h1v1H5zM4 9h1v1H4zm-1 1h1v1H3z" />
  </svg><svg viewBox="0 0 13 13" id="n8" xmlns="http://www.w3.org/2000/svg">
    <path fill="gray"
      d="M5 1h3v1H5zM4 2h1v1H4zm4 0h1v1H8zM3 3h1v2H3zm6 0h1v2H9zM4 5h1v1H4zm4 0h1v1H8zM5 6h3v1H5zM4 7h1v1H4zM3 8h1v2H3zm5-1h1v1H8zm1 1h1v2H9zm-1 2h1v1H8zm-3 1h3v1H5zm-1-1h1v1H4z" />
  </svg>
  <svg viewBox="0 0 13 13" id="nomine" xmlns="http://www.w3.org/2000/svg">
    <path
      d="M2 2h1v1H2zm8 0h1v1h-1zM6 1h1v2H6zM4 3h5v1H4zM3 4h1v2H3zm2 0h5v1H5zM4 5h6v1H4zM1 6h11v1H1zm2 1h7v2H3zm1 2h5v1H4zm2 1h1v2H6zm-4 0h1v1H2zm8 0h1v1h-1z" />
    <path
      d="M0 0h1v1H0zm12 0h1v1h-1zM1 1h1v1H1zm1 1h1v1H2zm1 1h1v1H3zm1 1h1v1H4zm1 1h1v1H5zm1 1h1v1H6zm1 1h1v1H7zm1 1h1v1H8zm1 1h1v1H9zm1 1h1v1h-1zm1 1h1v1h-1zm1 1h1v1h-1zM11 1h1v1h-1zm-1 1h1v1h-1zM9 3h1v1H9zM8 4h1v1H8zM7 5h1v1H7zM5 7h1v1H5zM4 8h1v1H4zm-4 4h1v1H0zm3-3h1v1H3zm-1 1h1v1H2zm-1 1h1v1H1z"
      fill="red" />
  </svg>
  <svg viewBox="0 0 13 13" id="pressed" xmlns="http://www.w3.org/2000/svg">
    <path d="M0 0h13v13H0z" />
    <path fill="#fff" d="M1 1h12v12H1z" />
    <path fill="gray" d="M1 1h11v11H1zM0 12h1v1H0zM12 0h1v1h-1z" />
  </svg>
</svg>